<svg xmlns="http://www.w3.org/2000/svg" viewBox="0 0 1254 1254" width="1254" height="1254" role="img" aria-labelledby="title desc">
  <title id="title">TekMemo icon</title>
  <desc id="desc">Vector version of the TekMemo icon with a transparent background.</desc>
  <defs>
    <linearGradient id="tekMemoGradient" gradientUnits="userSpaceOnUse" x1="72" y1="0" x2="1182" y2="0">
      <stop offset="0" stop-color="#0B84EE"/>
      <stop offset="0.5" stop-color="#20B3B3"/>
      <stop offset="1" stop-color="#55C95E"/>
    </linearGradient>
  </defs>
  <path fill="url(#tekMemoGradient)" fill-rule="evenodd" clip-rule="evenodd" d="
    M 569.0 1037.0 L 569.0 1047.0 L 571.0 1052.0 L 578.0 1059.0 L 583.0 1061.0 L 670.0 1061.0 L 679.0 1056.0 L 684.0 1048.0 L 685.0 1042.0 L 684.0 1036.0 L 680.0 1029.0 L 674.0 1024.0 L 668.0 1022.0 L 585.0 1022.0 L 576.0 1026.0 L 572.0 1030.0 Z
    M 844.0 896.0 L 835.0 892.0 L 829.0 892.0 L 821.0 895.0 L 815.0 901.0 L 812.0 907.0 L 807.0 925.0 L 798.0 943.0 L 779.0 969.0 L 753.0 992.0 L 741.0 1000.0 L 720.0 1010.0 L 715.0 1015.0 L 712.0 1022.0 L 712.0 1032.0 L 715.0 1038.0 L 720.0 1043.0 L 726.0 1046.0 L 737.0 1046.0 L 758.0 1036.0 L 774.0 1026.0 L 793.0 1011.0 L 815.0 988.0 L 835.0 958.0 L 849.0 925.0 L 851.0 918.0 L 851.0 907.0 L 849.0 902.0 Z
    M 409.0 896.0 L 404.0 902.0 L 402.0 907.0 L 402.0 917.0 L 404.0 924.0 L 417.0 956.0 L 436.0 985.0 L 450.0 1001.0 L 464.0 1014.0 L 489.0 1032.0 L 517.0 1046.0 L 527.0 1046.0 L 532.0 1044.0 L 539.0 1037.0 L 541.0 1033.0 L 541.0 1021.0 L 537.0 1013.0 L 500.0 991.0 L 491.0 984.0 L 470.0 963.0 L 459.0 948.0 L 451.0 934.0 L 443.0 915.0 L 441.0 905.0 L 439.0 901.0 L 433.0 895.0 L 426.0 892.0 L 417.0 892.0 Z
    M 406.0 836.0 L 406.0 844.0 L 408.0 850.0 L 418.0 860.0 L 516.0 908.0 L 589.0 946.0 L 604.0 951.0 L 615.0 953.0 L 639.0 953.0 L 664.0 946.0 L 836.0 860.0 L 842.0 855.0 L 847.0 845.0 L 846.0 833.0 L 844.0 829.0 L 838.0 823.0 L 832.0 820.0 L 819.0 820.0 L 649.0 905.0 L 635.0 909.0 L 618.0 909.0 L 607.0 906.0 L 436.0 820.0 L 423.0 819.0 L 414.0 823.0 L 410.0 827.0 Z
    M 406.0 740.0 L 407.0 751.0 L 410.0 757.0 L 417.0 763.0 L 589.0 847.0 L 608.0 853.0 L 626.0 855.0 L 646.0 853.0 L 660.0 849.0 L 835.0 764.0 L 843.0 757.0 L 847.0 748.0 L 846.0 736.0 L 838.0 726.0 L 832.0 723.0 L 826.0 722.0 L 819.0 723.0 L 667.0 797.0 L 657.0 803.0 L 638.0 810.0 L 621.0 811.0 L 603.0 806.0 L 593.0 800.0 L 433.0 722.0 L 423.0 722.0 L 416.0 725.0 L 409.0 732.0 Z
    M 404.0 629.0 L 404.0 644.0 L 406.0 651.0 L 415.0 665.0 L 424.0 672.0 L 532.0 722.0 L 589.0 750.0 L 616.0 757.0 L 637.0 757.0 L 662.0 751.0 L 802.0 684.0 L 817.0 678.0 L 832.0 670.0 L 842.0 660.0 L 846.0 653.0 L 849.0 643.0 L 849.0 628.0 L 846.0 619.0 L 838.0 607.0 L 828.0 599.0 L 672.0 529.0 L 641.0 521.0 L 611.0 521.0 L 586.0 527.0 L 493.0 568.0 L 438.0 594.0 L 429.0 597.0 L 420.0 603.0 L 411.0 612.0 Z
    M 447.0 633.0 L 457.0 627.0 L 600.0 563.0 L 616.0 559.0 L 636.0 559.0 L 653.0 563.0 L 724.0 594.0 L 746.0 605.0 L 790.0 624.0 L 804.0 631.0 L 806.0 635.0 L 802.0 638.0 L 650.0 709.0 L 635.0 713.0 L 619.0 713.0 L 604.0 709.0 L 454.0 639.0 L 448.0 636.0 Z
    M 1030.0 494.0 L 1024.0 495.0 L 1018.0 498.0 L 1011.0 505.0 L 1008.0 512.0 L 1008.0 523.0 L 1011.0 530.0 L 1116.0 635.0 L 1116.0 637.0 L 1012.0 742.0 L 1008.0 751.0 L 1008.0 760.0 L 1010.0 766.0 L 1017.0 774.0 L 1023.0 777.0 L 1035.0 778.0 L 1045.0 773.0 L 1165.0 653.0 L 1170.0 644.0 L 1171.0 631.0 L 1166.0 620.0 L 1045.0 499.0 L 1040.0 496.0 Z
    M 220.0 494.0 L 209.0 498.0 L 86.0 621.0 L 82.0 631.0 L 82.0 640.0 L 86.0 650.0 L 90.0 655.0 L 208.0 773.0 L 215.0 777.0 L 227.0 778.0 L 235.0 775.0 L 242.0 768.0 L 244.0 764.0 L 245.0 750.0 L 242.0 743.0 L 138.0 637.0 L 138.0 635.0 L 142.0 630.0 L 241.0 532.0 L 245.0 523.0 L 245.0 511.0 L 243.0 506.0 L 234.0 497.0 L 225.0 494.0 Z
    M 811.0 368.0 L 801.0 364.0 L 788.0 364.0 L 776.0 369.0 L 768.0 377.0 L 764.0 385.0 L 763.0 395.0 L 742.0 409.0 L 733.0 418.0 L 725.0 429.0 L 719.0 441.0 L 715.0 453.0 L 713.0 465.0 L 713.0 515.0 L 719.0 522.0 L 730.0 523.0 L 734.0 521.0 L 737.0 517.0 L 739.0 464.0 L 744.0 447.0 L 752.0 434.0 L 762.0 424.0 L 771.0 418.0 L 774.0 418.0 L 779.0 422.0 L 786.0 425.0 L 797.0 426.0 L 805.0 424.0 L 813.0 420.0 L 822.0 410.0 L 826.0 398.0 L 825.0 386.0 L 819.0 375.0 Z
    M 444.0 367.0 L 435.0 374.0 L 428.0 387.0 L 427.0 398.0 L 431.0 410.0 L 442.0 421.0 L 456.0 426.0 L 467.0 425.0 L 476.0 421.0 L 479.0 418.0 L 482.0 418.0 L 491.0 424.0 L 501.0 434.0 L 509.0 447.0 L 514.0 462.0 L 515.0 515.0 L 517.0 519.0 L 523.0 523.0 L 530.0 524.0 L 535.0 522.0 L 540.0 516.0 L 541.0 512.0 L 541.0 471.0 L 538.0 452.0 L 530.0 432.0 L 522.0 420.0 L 514.0 411.0 L 491.0 395.0 L 489.0 384.0 L 484.0 375.0 L 480.0 371.0 L 466.0 364.0 L 451.0 364.0 Z
    M 620.0 321.0 L 612.0 323.0 L 604.0 327.0 L 595.0 335.0 L 587.0 351.0 L 586.0 364.0 L 589.0 376.0 L 595.0 386.0 L 601.0 392.0 L 613.0 399.0 L 613.0 491.0 L 615.0 495.0 L 621.0 500.0 L 629.0 501.0 L 634.0 499.0 L 640.0 491.0 L 640.0 399.0 L 653.0 391.0 L 661.0 382.0 L 666.0 370.0 L 667.0 355.0 L 662.0 341.0 L 656.0 333.0 L 650.0 328.0 L 641.0 323.0 L 634.0 321.0 Z
    M 309.0 363.0 L 295.0 388.0 L 289.0 407.0 L 287.0 419.0 L 287.0 446.0 L 289.0 458.0 L 294.0 474.0 L 303.0 493.0 L 314.0 508.0 L 323.0 517.0 L 345.0 532.0 L 345.0 537.0 L 348.0 544.0 L 348.0 548.0 L 337.0 554.0 L 319.0 567.0 L 304.0 583.0 L 295.0 596.0 L 286.0 613.0 L 280.0 630.0 L 276.0 650.0 L 275.0 673.0 L 277.0 692.0 L 281.0 709.0 L 294.0 739.0 L 312.0 764.0 L 328.0 779.0 L 345.0 791.0 L 363.0 800.0 L 374.0 802.0 L 382.0 797.0 L 384.0 793.0 L 384.0 785.0 L 379.0 778.0 L 366.0 772.0 L 357.0 766.0 L 338.0 749.0 L 325.0 731.0 L 318.0 718.0 L 311.0 698.0 L 308.0 681.0 L 308.0 655.0 L 312.0 635.0 L 322.0 611.0 L 338.0 589.0 L 350.0 578.0 L 371.0 564.0 L 376.0 565.0 L 390.0 564.0 L 404.0 557.0 L 409.0 552.0 L 415.0 541.0 L 417.0 534.0 L 417.0 525.0 L 415.0 517.0 L 410.0 508.0 L 402.0 500.0 L 397.0 497.0 L 388.0 494.0 L 374.0 494.0 L 362.0 499.0 L 359.0 499.0 L 343.0 484.0 L 333.0 467.0 L 327.0 447.0 L 326.0 426.0 L 329.0 411.0 L 333.0 400.0 L 341.0 386.0 L 360.0 367.0 L 381.0 356.0 L 393.0 353.0 L 413.0 352.0 L 419.0 349.0 L 423.0 345.0 L 427.0 337.0 L 428.0 316.0 L 434.0 296.0 L 441.0 283.0 L 449.0 272.0 L 462.0 259.0 L 487.0 243.0 L 505.0 237.0 L 521.0 234.0 L 545.0 234.0 L 560.0 237.0 L 574.0 242.0 L 591.0 252.0 L 608.0 268.0 L 613.0 275.0 L 623.0 280.0 L 635.0 279.0 L 659.0 256.0 L 671.0 248.0 L 695.0 238.0 L 712.0 235.0 L 733.0 235.0 L 746.0 237.0 L 762.0 242.0 L 778.0 250.0 L 788.0 257.0 L 803.0 271.0 L 810.0 280.0 L 819.0 296.0 L 823.0 307.0 L 826.0 321.0 L 827.0 339.0 L 829.0 343.0 L 836.0 350.0 L 844.0 353.0 L 865.0 354.0 L 880.0 359.0 L 896.0 369.0 L 909.0 382.0 L 921.0 402.0 L 927.0 425.0 L 927.0 442.0 L 925.0 453.0 L 920.0 468.0 L 908.0 487.0 L 895.0 499.0 L 890.0 499.0 L 885.0 496.0 L 877.0 494.0 L 868.0 494.0 L 860.0 496.0 L 849.0 502.0 L 842.0 510.0 L 838.0 518.0 L 836.0 526.0 L 836.0 533.0 L 838.0 541.0 L 842.0 549.0 L 852.0 559.0 L 863.0 564.0 L 869.0 565.0 L 882.0 564.0 L 907.0 581.0 L 921.0 596.0 L 931.0 611.0 L 941.0 635.0 L 945.0 656.0 L 945.0 680.0 L 942.0 698.0 L 938.0 711.0 L 926.0 735.0 L 917.0 747.0 L 905.0 759.0 L 886.0 773.0 L 875.0 778.0 L 871.0 782.0 L 869.0 786.0 L 870.0 795.0 L 875.0 800.0 L 883.0 802.0 L 890.0 800.0 L 911.0 789.0 L 927.0 777.0 L 944.0 760.0 L 961.0 735.0 L 971.0 711.0 L 976.0 690.0 L 977.0 652.0 L 973.0 631.0 L 967.0 614.0 L 959.0 598.0 L 943.0 576.0 L 923.0 559.0 L 904.0 548.0 L 908.0 533.0 L 929.0 518.0 L 939.0 508.0 L 950.0 493.0 L 960.0 472.0 L 966.0 447.0 L 966.0 420.0 L 961.0 397.0 L 956.0 384.0 L 946.0 366.0 L 939.0 357.0 L 922.0 340.0 L 911.0 332.0 L 894.0 323.0 L 877.0 317.0 L 869.0 316.0 L 864.0 313.0 L 861.0 296.0 L 855.0 280.0 L 849.0 268.0 L 839.0 253.0 L 817.0 230.0 L 795.0 215.0 L 771.0 204.0 L 753.0 199.0 L 730.0 196.0 L 703.0 197.0 L 683.0 201.0 L 666.0 207.0 L 642.0 220.0 L 629.0 231.0 L 626.0 231.0 L 616.0 222.0 L 601.0 212.0 L 581.0 203.0 L 559.0 197.0 L 543.0 195.0 L 522.0 195.0 L 506.0 197.0 L 486.0 202.0 L 468.0 209.0 L 452.0 218.0 L 438.0 228.0 L 422.0 243.0 L 410.0 258.0 L 399.0 277.0 L 391.0 299.0 L 389.0 312.0 L 387.0 314.0 L 365.0 320.0 L 343.0 331.0 L 327.0 343.0 Z
  "/>
</svg>
