<?xml version="1.0" encoding="UTF-8"?>
<svg viewBox="0 0 900 540" xmlns="http://www.w3.org/2000/svg"
     style="width:100%;max-width:1040px;height:auto" role="img">
<title>TekMemo Cloud — Architecture</title>
<desc>Six memory layers stream data via animated bezier paths into a central MemArch data-center node.</desc>
<style><![CDATA[
svg {
  font-family: "JetBrains Mono", ui-monospace, SFMono-Regular, Menlo, Monaco, Consolas, "Liberation Mono", "Courier New", monospace;
}
.fp{stroke-dasharray:5 22;animation:dash 2.4s linear infinite}
.fp-2{animation-duration:3.1s;animation-delay:-1.3s}
.fp-3{animation-duration:2.7s;animation-delay:-0.6s}
.fp-4{animation-duration:3.5s;animation-delay:-2.1s}
.fp-5{animation-duration:2.2s;animation-delay:-1.7s}
.fp-6{animation-duration:3.2s;animation-delay:-0.9s}
@keyframes dash{to{stroke-dashoffset:-27}
@media (prefers-reduced-motion: reduce) {
  .fp { animation: none; }
}
]]></style>
<defs>
  <filter id="g-pk" x="-80%" y="-80%" width="260%" height="260%">
    <feGaussianBlur in="SourceGraphic" stdDeviation="2.5" result="b"/>
    <feMerge><feMergeNode in="b"/><feMergeNode in="SourceGraphic"/></feMerge>
  </filter>
  <filter id="g-halo" x="-200%" y="-200%" width="500%" height="500%">
    <feGaussianBlur in="SourceGraphic" stdDeviation="9"/>
  </filter>
  <filter id="g-aura" x="-300%" y="-300%" width="700%" height="700%">
    <feGaussianBlur in="SourceGraphic" stdDeviation="32"/>
  </filter>
  <filter id="g-rack" x="-40%" y="-40%" width="180%" height="180%">
    <feGaussianBlur in="SourceGraphic" stdDeviation="5" result="b"/>
    <feMerge><feMergeNode in="b"/><feMergeNode in="SourceGraphic"/></feMerge>
  </filter>
  <pattern id="dots" x="0" y="0" width="32" height="32" patternUnits="userSpaceOnUse">
    <circle cx="16" cy="16" r="0.7" fill="#252829"/>
  </pattern>
  <radialGradient id="bg-g" cx="450" cy="270" r="360" gradientUnits="userSpaceOnUse">
    <stop offset="0%" stop-color="#181b1e"/>
    <stop offset="100%" stop-color="#101415"/>
  </radialGradient>
  <radialGradient id="vig" cx="450" cy="270" r="480" gradientUnits="userSpaceOnUse">
    <stop offset="0%"   stop-color="#101415" stop-opacity="0"/>
    <stop offset="100%" stop-color="#101415" stop-opacity="0.85"/>
  </radialGradient>
  <!-- Per-path gradients: from node → DC, colour fades in then softens at entry -->
  <linearGradient id="gm"  x1="148" y1="106" x2="450" y2="188" gradientUnits="userSpaceOnUse">
    <stop offset="0%"  stop-color="#c3c0ff" stop-opacity="0"/>
    <stop offset="55%" stop-color="#c3c0ff" stop-opacity="0.6"/>
    <stop offset="100%" stop-color="#4f46e5" stop-opacity="0.4"/>
  </linearGradient>
  <linearGradient id="ge"  x1="752" y1="106" x2="450" y2="188" gradientUnits="userSpaceOnUse">
    <stop offset="0%"  stop-color="#c3c0ff" stop-opacity="0"/>
    <stop offset="55%" stop-color="#c3c0ff" stop-opacity="0.6"/>
    <stop offset="100%" stop-color="#4f46e5" stop-opacity="0.4"/>
  </linearGradient>
  <linearGradient id="gi"  x1="95"  y1="270" x2="388" y2="270" gradientUnits="userSpaceOnUse">
    <stop offset="0%"  stop-color="#c3c0ff" stop-opacity="0"/>
    <stop offset="55%" stop-color="#c3c0ff" stop-opacity="0.6"/>
    <stop offset="100%" stop-color="#4f46e5" stop-opacity="0.4"/>
  </linearGradient>
  <linearGradient id="gg"  x1="805" y1="270" x2="512" y2="270" gradientUnits="userSpaceOnUse">
    <stop offset="0%"  stop-color="#c3c0ff" stop-opacity="0"/>
    <stop offset="55%" stop-color="#c3c0ff" stop-opacity="0.6"/>
    <stop offset="100%" stop-color="#4f46e5" stop-opacity="0.4"/>
  </linearGradient>
  <linearGradient id="gs"  x1="148" y1="434" x2="450" y2="352" gradientUnits="userSpaceOnUse">
    <stop offset="0%"  stop-color="#c3c0ff" stop-opacity="0"/>
    <stop offset="55%" stop-color="#c3c0ff" stop-opacity="0.6"/>
    <stop offset="100%" stop-color="#4f46e5" stop-opacity="0.4"/>
  </linearGradient>
  <linearGradient id="gmf" x1="752" y1="434" x2="450" y2="352" gradientUnits="userSpaceOnUse">
    <stop offset="0%"  stop-color="#c3c0ff" stop-opacity="0"/>
    <stop offset="55%" stop-color="#c3c0ff" stop-opacity="0.6"/>
    <stop offset="100%" stop-color="#4f46e5" stop-opacity="0.4"/>
  </linearGradient>
  <!-- Rack vertical sheen -->
  <linearGradient id="rack-sh" x1="0" y1="0" x2="1" y2="0">
    <stop offset="0%"   stop-color="#ffffff" stop-opacity="0.03"/>
    <stop offset="40%"  stop-color="#ffffff" stop-opacity="0.07"/>
    <stop offset="100%" stop-color="#ffffff" stop-opacity="0.01"/>
  </linearGradient>
  <!-- Rack top edge -->
  <linearGradient id="rack-top" x1="0" y1="0" x2="1" y2="0">
    <stop offset="0%"   stop-color="#6655cc" stop-opacity="0.1"/>
    <stop offset="50%"  stop-color="#c3c0ff" stop-opacity="0.45"/>
    <stop offset="100%" stop-color="#6655cc" stop-opacity="0.1"/>
  </linearGradient>
  <!-- Unit row fill -->
  <linearGradient id="unit-g" x1="0" y1="0" x2="1" y2="0">
    <stop offset="0%"   stop-color="#161920" stop-opacity="1"/>
    <stop offset="100%" stop-color="#111318" stop-opacity="1"/>
  </linearGradient>
</defs>

<!-- ── Background ────────────────────────────────────────────── -->
<rect width="900" height="540" fill="url(#bg-g)"/>
<rect width="900" height="540" fill="url(#dots)"/>
<rect width="900" height="540" fill="url(#vig)"/>

<!-- ── Ambient glow behind DC ────────────────────────────────── -->
<ellipse cx="450" cy="270" rx="180" ry="140" fill="#4f46e5" opacity="0.08" filter="url(#g-aura)"/>
<ellipse cx="450" cy="270" rx="90"  ry="70"  fill="#4f46e5" opacity="0.18" filter="url(#g-halo)"/>

<!-- ── Sonar rings (3, staggered 1s apart) ───────────────────── -->
<circle cx="450" cy="270" r="72" fill="none" stroke="#4f46e5" stroke-width="1" opacity="0">
  <animate attributeName="r"       from="72" to="230" dur="3s" repeatCount="indefinite" begin="0s"/>
  <animate attributeName="opacity" values="0;0.45;0.45;0" keyTimes="0;0.05;0.28;1" dur="3s" repeatCount="indefinite" begin="0s"/>
  <animate attributeName="stroke-width" from="1.2" to="0.2" dur="3s" repeatCount="indefinite" begin="0s"/>
</circle>
<circle cx="450" cy="270" r="72" fill="none" stroke="#4f46e5" stroke-width="1" opacity="0">
  <animate attributeName="r"       from="72" to="230" dur="3s" repeatCount="indefinite" begin="1s"/>
  <animate attributeName="opacity" values="0;0.45;0.45;0" keyTimes="0;0.05;0.28;1" dur="3s" repeatCount="indefinite" begin="1s"/>
  <animate attributeName="stroke-width" from="1.2" to="0.2" dur="3s" repeatCount="indefinite" begin="1s"/>
</circle>
<circle cx="450" cy="270" r="72" fill="none" stroke="#4f46e5" stroke-width="1" opacity="0">
  <animate attributeName="r"       from="72" to="230" dur="3s" repeatCount="indefinite" begin="2s"/>
  <animate attributeName="opacity" values="0;0.45;0.45;0" keyTimes="0;0.05;0.28;1" dur="3s" repeatCount="indefinite" begin="2s"/>
  <animate attributeName="stroke-width" from="1.2" to="0.2" dur="3s" repeatCount="indefinite" begin="2s"/>
</circle>

<!-- ════════════════════════════════════════════════════════════ -->
<!-- CONNECTION PATHS                                             -->
<!-- Base structural ghost (always-on faint guide)               -->
<g fill="none" stroke="#2b2e31" stroke-width="1" opacity="0.7">
  <path d="M148,106 Q300,52  450,188"/>
  <path d="M752,106 Q600,52  450,188"/>
  <path d="M95,270  Q220,252 388,270"/>
  <path d="M805,270 Q680,252 512,270"/>
  <path d="M148,434 Q300,490 450,352"/>
  <path d="M752,434 Q600,490 450,352"/>
</g>
<!-- Flowing gradient dashes -->
<path d="M148,106 Q300,52  450,188" fill="none" stroke="url(#gm)"  stroke-width="1.5" class="fp"/>
<path d="M752,106 Q600,52  450,188" fill="none" stroke="url(#ge)"  stroke-width="1.5" class="fp fp-2"/>
<path d="M95,270  Q220,252 388,270" fill="none" stroke="url(#gi)"  stroke-width="1.5" class="fp fp-3"/>
<path d="M805,270 Q680,252 512,270" fill="none" stroke="url(#gg)"  stroke-width="1.5" class="fp fp-4"/>
<path d="M148,434 Q300,490 450,352" fill="none" stroke="url(#gs)"  stroke-width="1.5" class="fp fp-5"/>
<path d="M752,434 Q600,490 450,352" fill="none" stroke="url(#gmf)" stroke-width="1.5" class="fp fp-6"/>

<!-- ════════════════════════════════════════════════════════════ -->
<!-- DATA PACKETS (2 per path, comet = lead + ghost trail)       -->
<!-- memory/ -->
<circle r="3.2" fill="#c3c0ff" filter="url(#g-pk)"><animateMotion dur="2.8s" repeatCount="indefinite" begin="0s"    path="M148,106 Q300,52 450,188"/></circle>
<circle r="1.5" fill="#c3c0ff" opacity="0.35">       <animateMotion dur="2.8s" repeatCount="indefinite" begin="0.08s"  path="M148,106 Q300,52 450,188"/></circle>
<circle r="3.2" fill="#c3c0ff" filter="url(#g-pk)"><animateMotion dur="2.8s" repeatCount="indefinite" begin="-1.4s"  path="M148,106 Q300,52 450,188"/></circle>
<circle r="1.5" fill="#c3c0ff" opacity="0.35">       <animateMotion dur="2.8s" repeatCount="indefinite" begin="-1.32s" path="M148,106 Q300,52 450,188"/></circle>
<!-- events/ -->
<circle r="3.2" fill="#c3c0ff" filter="url(#g-pk)"><animateMotion dur="3.1s" repeatCount="indefinite" begin="-0.6s"  path="M752,106 Q600,52 450,188"/></circle>
<circle r="1.5" fill="#c3c0ff" opacity="0.35">       <animateMotion dur="3.1s" repeatCount="indefinite" begin="-0.52s" path="M752,106 Q600,52 450,188"/></circle>
<circle r="3.2" fill="#c3c0ff" filter="url(#g-pk)"><animateMotion dur="3.1s" repeatCount="indefinite" begin="-2.2s"  path="M752,106 Q600,52 450,188"/></circle>
<!-- indexes/ -->
<circle r="3.2" fill="#c3c0ff" filter="url(#g-pk)"><animateMotion dur="2.5s" repeatCount="indefinite" begin="-0.3s"  path="M95,270 Q220,252 388,270"/></circle>
<circle r="1.5" fill="#c3c0ff" opacity="0.35">       <animateMotion dur="2.5s" repeatCount="indefinite" begin="-0.22s" path="M95,270 Q220,252 388,270"/></circle>
<circle r="3.2" fill="#c3c0ff" filter="url(#g-pk)"><animateMotion dur="2.5s" repeatCount="indefinite" begin="-1.5s"  path="M95,270 Q220,252 388,270"/></circle>
<!-- graph/ -->
<circle r="3.2" fill="#c3c0ff" filter="url(#g-pk)"><animateMotion dur="3.0s" repeatCount="indefinite" begin="-1.0s"  path="M805,270 Q680,252 512,270"/></circle>
<circle r="1.5" fill="#c3c0ff" opacity="0.35">       <animateMotion dur="3.0s" repeatCount="indefinite" begin="-0.92s" path="M805,270 Q680,252 512,270"/></circle>
<circle r="3.2" fill="#c3c0ff" filter="url(#g-pk)"><animateMotion dur="3.0s" repeatCount="indefinite" begin="-2.4s"  path="M805,270 Q680,252 512,270"/></circle>
<!-- snapshots/ -->
<circle r="3.2" fill="#c3c0ff" filter="url(#g-pk)"><animateMotion dur="3.4s" repeatCount="indefinite" begin="-0.8s"  path="M148,434 Q300,490 450,352"/></circle>
<circle r="1.5" fill="#c3c0ff" opacity="0.35">       <animateMotion dur="3.4s" repeatCount="indefinite" begin="-0.72s" path="M148,434 Q300,490 450,352"/></circle>
<circle r="3.2" fill="#c3c0ff" filter="url(#g-pk)"><animateMotion dur="3.4s" repeatCount="indefinite" begin="-2.3s"  path="M148,434 Q300,490 450,352"/></circle>
<!-- manifest -->
<circle r="3.2" fill="#c3c0ff" filter="url(#g-pk)"><animateMotion dur="2.7s" repeatCount="indefinite" begin="-1.6s"  path="M752,434 Q600,490 450,352"/></circle>
<circle r="1.5" fill="#c3c0ff" opacity="0.35">       <animateMotion dur="2.7s" repeatCount="indefinite" begin="-1.52s" path="M752,434 Q600,490 450,352"/></circle>
<circle r="3.2" fill="#c3c0ff" filter="url(#g-pk)"><animateMotion dur="2.7s" repeatCount="indefinite" begin="-0.9s"  path="M752,434 Q600,490 450,352"/></circle>

<!-- ════════════════════════════════════════════════════════════ -->
<!-- LAYER NODE CARDS                                             -->
<!-- Anatomy: shadow→body→top-highlight→icon-box→icon→labels→dot -->

<!-- ── memory/ (top-left, center 148,106) ── -->
<rect x="80" y="72" width="140" height="70" rx="4" fill="#000" opacity="0.35"/>
<rect x="78" y="70" width="140" height="70" rx="4" fill="#0c0f12" stroke="#3a3a4a" stroke-width="0.75"/>
<line x1="82" y1="70.4" x2="214" y2="70.4" stroke="#8877dd" stroke-width="0.8" opacity="0.4"/>
<rect x="90" y="80" width="26" height="26" rx="2.5" fill="#141720" stroke="#272a2e" stroke-width="0.7"/>
<rect x="97" y="87" width="12" height="9" rx="1" fill="none" stroke="#c3c0ff" stroke-width="1.2"/>
<rect x="99" y="89" width="8" height="5" rx="0.5" fill="#4f46e5" opacity="0.75"/>
<line x1="99" y1="87" x2="99" y2="84" stroke="#c3c0ff" stroke-width="0.9"/>
<line x1="101" y1="87" x2="101" y2="84" stroke="#c3c0ff" stroke-width="0.9"/>
<line x1="103" y1="87" x2="103" y2="84" stroke="#c3c0ff" stroke-width="0.9"/>
<line x1="105" y1="87" x2="105" y2="84" stroke="#c3c0ff" stroke-width="0.9"/>
<line x1="99" y1="96" x2="99" y2="99"   stroke="#c3c0ff" stroke-width="0.9"/>
<line x1="101" y1="96" x2="101" y2="99" stroke="#c3c0ff" stroke-width="0.9"/>
<line x1="103" y1="96" x2="103" y2="99" stroke="#c3c0ff" stroke-width="0.9"/>
<line x1="105" y1="96" x2="105" y2="99" stroke="#c3c0ff" stroke-width="0.9"/>
<text x="124" y="89" font-family="'JetBrains Mono',monospace" font-size="10" font-weight="700" fill="#c3c0ff">memory/</text>
<text x="124" y="102" font-family="'JetBrains Mono',monospace" font-size="8" fill="#555666">core · notes</text>
<circle cx="208" cy="75" r="3" fill="#22c55e">
  <animate attributeName="opacity" values="1;0.2;1" dur="2.0s" repeatCount="indefinite"/>
</circle>
<text x="90" y="130" font-family="'JetBrains Mono',monospace" font-size="7" fill="#2e3035" letter-spacing="0.08em">LAYER 01</text>

<!-- ── events/ (top-right, center 752,106) ── -->
<rect x="684" y="72" width="140" height="70" rx="4" fill="#000" opacity="0.35"/>
<rect x="682" y="70" width="140" height="70" rx="4" fill="#0c0f12" stroke="#3a3a4a" stroke-width="0.75"/>
<line x1="686" y1="70.4" x2="818" y2="70.4" stroke="#8877dd" stroke-width="0.8" opacity="0.4"/>
<rect x="694" y="80" width="26" height="26" rx="2.5" fill="#141720" stroke="#272a2e" stroke-width="0.7"/>
<path d="M706,82 L701,91 H705 L701,98 L711.5,88 H707 Z" fill="#c3c0ff"/>
<text x="728" y="89" font-family="'JetBrains Mono',monospace" font-size="10" font-weight="700" fill="#c3c0ff">events/</text>
<text x="728" y="102" font-family="'JetBrains Mono',monospace" font-size="8" fill="#555666">stream · convos</text>
<circle cx="812" cy="75" r="3" fill="#22c55e">
  <animate attributeName="opacity" values="1;0.2;1" dur="1.8s" repeatCount="indefinite" begin="0.3s"/>
</circle>
<text x="694" y="130" font-family="'JetBrains Mono',monospace" font-size="7" fill="#2e3035" letter-spacing="0.08em">LAYER 02</text>

<!-- ── indexes/ (mid-left, center 95,270) ── -->
<rect x="27" y="236" width="140" height="70" rx="4" fill="#000" opacity="0.35"/>
<rect x="25" y="234" width="140" height="70" rx="4" fill="#0c0f12" stroke="#3a3a4a" stroke-width="0.75"/>
<line x1="29" y1="234.4" x2="161" y2="234.4" stroke="#8877dd" stroke-width="0.8" opacity="0.4"/>
<rect x="37" y="244" width="26" height="26" rx="2.5" fill="#141720" stroke="#272a2e" stroke-width="0.7"/>
<circle cx="47" cy="253.5" r="6" fill="none" stroke="#c3c0ff" stroke-width="1.3"/>
<line x1="44" y1="251" x2="50" y2="251" stroke="#c3c0ff" stroke-width="0.75" opacity="0.55"/>
<line x1="44" y1="253.5" x2="50" y2="253.5" stroke="#c3c0ff" stroke-width="0.75" opacity="0.55"/>
<line x1="44" y1="256" x2="50" y2="256" stroke="#c3c0ff" stroke-width="0.75" opacity="0.55"/>
<line x1="52" y1="258" x2="56" y2="262" stroke="#c3c0ff" stroke-width="1.7" stroke-linecap="round"/>
<text x="71" y="252" font-family="'JetBrains Mono',monospace" font-size="10" font-weight="700" fill="#c3c0ff">indexes/</text>
<text x="71" y="265" font-family="'JetBrains Mono',monospace" font-size="8" fill="#555666">chunks.jsonl</text>
<circle cx="155" cy="239" r="3" fill="#22c55e">
  <animate attributeName="opacity" values="1;0.2;1" dur="2.3s" repeatCount="indefinite" begin="0.6s"/>
</circle>
<text x="37" y="295" font-family="'JetBrains Mono',monospace" font-size="7" fill="#2e3035" letter-spacing="0.08em">LAYER 03</text>

<!-- ── graph/ (mid-right, center 805,270) ── -->
<rect x="737" y="236" width="140" height="70" rx="4" fill="#000" opacity="0.35"/>
<rect x="735" y="234" width="140" height="70" rx="4" fill="#0c0f12" stroke="#3a3a4a" stroke-width="0.75"/>
<line x1="739" y1="234.4" x2="871" y2="234.4" stroke="#8877dd" stroke-width="0.8" opacity="0.4"/>
<rect x="747" y="244" width="26" height="26" rx="2.5" fill="#141720" stroke="#272a2e" stroke-width="0.7"/>
<circle cx="754" cy="251" r="2.4" fill="#c3c0ff"/>
<circle cx="763" cy="259" r="2.4" fill="#c3c0ff"/>
<circle cx="754" cy="264" r="2.4" fill="#c3c0ff"/>
<circle cx="766" cy="249" r="1.8" fill="#c3c0ff" opacity="0.5"/>
<line x1="754" y1="251" x2="763" y2="259" stroke="#c3c0ff" stroke-width="1"/>
<line x1="763" y1="259" x2="754" y2="264" stroke="#c3c0ff" stroke-width="1"/>
<line x1="754" y1="251" x2="766" y2="249" stroke="#c3c0ff" stroke-width="0.8" opacity="0.45"/>
<line x1="754" y1="251" x2="754" y2="264" stroke="#c3c0ff" stroke-width="0.7" opacity="0.3"/>
<text x="781" y="252" font-family="'JetBrains Mono',monospace" font-size="10" font-weight="700" fill="#c3c0ff">graph/</text>
<text x="781" y="265" font-family="'JetBrains Mono',monospace" font-size="8" fill="#555666">nodes · edges</text>
<circle cx="865" cy="239" r="3" fill="#22c55e">
  <animate attributeName="opacity" values="1;0.2;1" dur="2.6s" repeatCount="indefinite" begin="0.9s"/>
</circle>
<text x="747" y="295" font-family="'JetBrains Mono',monospace" font-size="7" fill="#2e3035" letter-spacing="0.08em">LAYER 04</text>

<!-- ── snapshots/ (bottom-left, center 148,434) ── -->
<rect x="80" y="400" width="140" height="70" rx="4" fill="#000" opacity="0.35"/>
<rect x="78" y="398" width="140" height="70" rx="4" fill="#0c0f12" stroke="#3a3a4a" stroke-width="0.75"/>
<line x1="82" y1="398.4" x2="214" y2="398.4" stroke="#8877dd" stroke-width="0.8" opacity="0.4"/>
<rect x="90" y="408" width="26" height="26" rx="2.5" fill="#141720" stroke="#272a2e" stroke-width="0.7"/>
<!-- Camera icon -->
<rect x="92" y="413" width="22" height="16" rx="2" fill="none" stroke="#c3c0ff" stroke-width="1.2"/>
<circle cx="103" cy="421" r="4.5" fill="none" stroke="#c3c0ff" stroke-width="1.1"/>
<circle cx="103" cy="421" r="1.8" fill="#4f46e5" opacity="0.8"/>
<path d="M99,413 L100.5,411 H105.5 L107,413" fill="none" stroke="#c3c0ff" stroke-width="1" stroke-linejoin="round"/>
<text x="124" y="418" font-family="'JetBrains Mono',monospace" font-size="10" font-weight="700" fill="#c3c0ff">snapshots/</text>
<text x="124" y="431" font-family="'JetBrains Mono',monospace" font-size="8" fill="#555666">snapshots.jsonl</text>
<circle cx="208" cy="403" r="3" fill="#22c55e">
  <animate attributeName="opacity" values="1;0.2;1" dur="1.5s" repeatCount="indefinite" begin="1.1s"/>
</circle>
<text x="90" y="458" font-family="'JetBrains Mono',monospace" font-size="7" fill="#2e3035" letter-spacing="0.08em">LAYER 05</text>

<!-- ── manifest.json (bottom-right, center 752,434) ── -->
<rect x="684" y="400" width="140" height="70" rx="4" fill="#000" opacity="0.35"/>
<rect x="682" y="398" width="140" height="70" rx="4" fill="#0c0f12" stroke="#3a3a4a" stroke-width="0.75"/>
<line x1="686" y1="398.4" x2="818" y2="398.4" stroke="#8877dd" stroke-width="0.8" opacity="0.4"/>
<rect x="694" y="408" width="26" height="26" rx="2.5" fill="#141720" stroke="#272a2e" stroke-width="0.7"/>
<!-- JSON brace icon -->
<text x="700" y="425" font-family="'JetBrains Mono',monospace" font-size="15" font-weight="700" fill="#c3c0ff">{ }</text>
<text x="728" y="418" font-family="'JetBrains Mono',monospace" font-size="10" font-weight="700" fill="#c3c0ff">manifest</text>
<text x="728" y="431" font-family="'JetBrains Mono',monospace" font-size="8" fill="#555666">manifest.json</text>
<circle cx="812" cy="403" r="3" fill="#f59e0b">
  <animate attributeName="opacity" values="1;0.3;1" dur="3.1s" repeatCount="indefinite" begin="0.5s"/>
</circle>
<text x="694" y="458" font-family="'JetBrains Mono',monospace" font-size="7" fill="#2e3035" letter-spacing="0.08em">CONFIG</text>

<!-- ════════════════════════════════════════════════════════════ -->
<!-- CENTRAL DATA CENTER RACK                                     -->
<!-- Body: 128×188 rack, rx=6, centered at 450,270               -->
<!-- Spans x=386..514, y=176..364                                 -->

<!-- Glow behind rack -->
<rect x="386" y="176" width="128" height="188" rx="8" fill="#4f46e5" opacity="0.22" filter="url(#g-halo)"/>

<!-- Rack body -->
<rect x="386" y="176" width="128" height="188" rx="6" fill="#0d1014" stroke="#4f46e5" stroke-width="1.2"/>

<!-- Rack top edge highlight (glassy rim) -->
<line x1="390" y1="176.6" x2="510" y2="176.6" stroke="url(#rack-top)" stroke-width="0.9"/>

<!-- Rack vertical sheen -->
<rect x="386" y="176" width="128" height="188" rx="6" fill="url(#rack-sh)"/>

<!-- Screw bolts (4 corners) — detail at premium fidelity -->
<circle cx="395" cy="185" r="2.5" fill="#1a1d22" stroke="#333" stroke-width="0.6"/>
<circle cx="395" cy="185" r="0.8" fill="#2a2d32"/>
<circle cx="505" cy="185" r="2.5" fill="#1a1d22" stroke="#333" stroke-width="0.6"/>
<circle cx="505" cy="185" r="0.8" fill="#2a2d32"/>
<circle cx="395" cy="355" r="2.5" fill="#1a1d22" stroke="#333" stroke-width="0.6"/>
<circle cx="395" cy="355" r="0.8" fill="#2a2d32"/>
<circle cx="505" cy="355" r="2.5" fill="#1a1d22" stroke="#333" stroke-width="0.6"/>
<circle cx="505" cy="355" r="0.8" fill="#2a2d32"/>

<!-- Rack label strip -->
<rect x="386" y="176" width="128" height="18" rx="6" fill="#0a0c10"/>
<rect x="386" y="188" width="128" height="6" rx="0" fill="#0a0c10"/>
<text x="450" y="188" text-anchor="middle" font-family="'JetBrains Mono',monospace" font-size="7.5" font-weight="700" fill="#6655cc" letter-spacing="0.12em">TEKMEMO</text>

<!-- ── Server units (6 rows inside rack) ─────────────────────── -->
<!-- Row geometry: x=394 w=112 h=24 gap=5, starting y=200       -->

<!-- Unit 1: y=200 — active (memory sync) -->
<rect x="394" y="200" width="112" height="24" rx="2" fill="url(#unit-g)" stroke="#252830" stroke-width="0.6"/>
<line x1="394" y1="200.3" x2="506" y2="200.3" stroke="#ffffff" stroke-width="0.3" opacity="0.06"/>
<rect x="397" y="203" width="28" height="18" rx="1.5" fill="#1a1e26" stroke="#2a2d35" stroke-width="0.5"/>
<!-- Horizontal bars (disk array / memory read pattern) -->
<line x1="400" y1="207" x2="422" y2="207" stroke="#4f46e5" stroke-width="1.2" opacity="0.9"/>
<line x1="400" y1="210" x2="418" y2="210" stroke="#4f46e5" stroke-width="1.2" opacity="0.7"/>
<line x1="400" y1="213" x2="420" y2="213" stroke="#4f46e5" stroke-width="1.2" opacity="0.55"/>
<line x1="400" y1="216" x2="416" y2="216" stroke="#4f46e5" stroke-width="1.2" opacity="0.4"/>
<text x="430" y="215" font-family="'JetBrains Mono',monospace" font-size="7.5" fill="#7a7a9a">MEM·CORE</text>
<circle cx="498" cy="212" r="2.2" fill="#22c55e">
  <animate attributeName="opacity" values="1;0.15;1" dur="1.3s" repeatCount="indefinite"/>
</circle>

<!-- Unit 2: y=229 — active (event stream) -->
<rect x="394" y="229" width="112" height="24" rx="2" fill="url(#unit-g)" stroke="#252830" stroke-width="0.6"/>
<line x1="394" y1="229.3" x2="506" y2="229.3" stroke="#ffffff" stroke-width="0.3" opacity="0.06"/>
<rect x="397" y="232" width="28" height="18" rx="1.5" fill="#1a1e26" stroke="#2a2d35" stroke-width="0.5"/>
<!-- Waveform bars -->
<rect x="399" y="239" width="2.5" height="5"  rx="0.5" fill="#c3c0ff" opacity="0.8"/>
<rect x="403" y="237" width="2.5" height="9"  rx="0.5" fill="#c3c0ff" opacity="0.9"/>
<rect x="407" y="234" width="2.5" height="12" rx="0.5" fill="#c3c0ff"/>
<rect x="411" y="237" width="2.5" height="8"  rx="0.5" fill="#c3c0ff" opacity="0.8"/>
<rect x="415" y="240" width="2.5" height="5"  rx="0.5" fill="#c3c0ff" opacity="0.6"/>
<rect x="419" y="238" width="2.5" height="7"  rx="0.5" fill="#c3c0ff" opacity="0.7"/>
<text x="430" y="244" font-family="'JetBrains Mono',monospace" font-size="7.5" fill="#7a7a9a">EVT·STREAM</text>
<circle cx="498" cy="241" r="2.2" fill="#22c55e">
  <animate attributeName="opacity" values="1;0.15;1" dur="2.0s" repeatCount="indefinite" begin="0.4s"/>
</circle>

<!-- Unit 3: y=258 — active (index engine) -->
<rect x="394" y="258" width="112" height="24" rx="2" fill="url(#unit-g)" stroke="#252830" stroke-width="0.6"/>
<line x1="394" y1="258.3" x2="506" y2="258.3" stroke="#ffffff" stroke-width="0.3" opacity="0.06"/>
<rect x="397" y="261" width="28" height="18" rx="1.5" fill="#1a1e26" stroke="#2a2d35" stroke-width="0.5"/>
<circle cx="407" cy="270" r="5.5" fill="none" stroke="#c3c0ff" stroke-width="1.3"/>
<line x1="411.5" y1="274.5" x2="415.5" y2="278.5" stroke="#c3c0ff" stroke-width="1.7" stroke-linecap="round"/>
<text x="430" y="273" font-family="'JetBrains Mono',monospace" font-size="7.5" fill="#7a7a9a">IDX·ENGINE</text>
<circle cx="498" cy="270" r="2.2" fill="#22c55e">
  <animate attributeName="opacity" values="1;0.15;1" dur="0.85s" repeatCount="indefinite" begin="0.75s"/>
</circle>

<!-- Unit 4: y=287 — active (graph db) -->
<rect x="394" y="287" width="112" height="24" rx="2" fill="url(#unit-g)" stroke="#252830" stroke-width="0.6"/>
<line x1="394" y1="287.3" x2="506" y2="287.3" stroke="#ffffff" stroke-width="0.3" opacity="0.06"/>
<rect x="397" y="290" width="28" height="18" rx="1.5" fill="#1a1e26" stroke="#2a2d35" stroke-width="0.5"/>
<circle cx="403" cy="297" r="2.2" fill="#c3c0ff"/>
<circle cx="411" cy="302" r="2.2" fill="#c3c0ff"/>
<circle cx="418" cy="296" r="1.8" fill="#c3c0ff" opacity="0.55"/>
<line x1="403" y1="297" x2="411" y2="302" stroke="#c3c0ff" stroke-width="1"/>
<line x1="411" y1="302" x2="418" y2="296" stroke="#c3c0ff" stroke-width="1"/>
<line x1="403" y1="297" x2="418" y2="296" stroke="#c3c0ff" stroke-width="0.7" opacity="0.4"/>
<text x="430" y="302" font-family="'JetBrains Mono',monospace" font-size="7.5" fill="#7a7a9a">GRAPH·DB</text>
<circle cx="498" cy="299" r="2.2" fill="#22c55e">
  <animate attributeName="opacity" values="1;0.15;1" dur="1.7s" repeatCount="indefinite" begin="0.2s"/>
</circle>

<!-- Unit 5: y=316 — active (snapshot store) -->
<rect x="394" y="316" width="112" height="24" rx="2" fill="url(#unit-g)" stroke="#252830" stroke-width="0.6"/>
<line x1="394" y1="316.3" x2="506" y2="316.3" stroke="#ffffff" stroke-width="0.3" opacity="0.06"/>
<rect x="397" y="319" width="28" height="18" rx="1.5" fill="#1a1e26" stroke="#2a2d35" stroke-width="0.5"/>
<rect x="399" y="321" width="22" height="14" rx="1.5" fill="none" stroke="#c3c0ff" stroke-width="1.1"/>
<circle cx="410" cy="328" r="3.5" fill="none" stroke="#c3c0ff" stroke-width="1"/>
<circle cx="410" cy="328" r="1.3" fill="#4f46e5" opacity="0.9"/>
<rect x="419" y="321" width="4" height="5" rx="0.8" fill="none" stroke="#c3c0ff" stroke-width="0.9"/>
<text x="430" y="331" font-family="'JetBrains Mono',monospace" font-size="7.5" fill="#7a7a9a">SNAP·STORE</text>
<circle cx="498" cy="328" r="2.2" fill="#22c55e">
  <animate attributeName="opacity" values="1;0.15;1" dur="1.1s" repeatCount="indefinite" begin="1.1s"/>
</circle>

<!-- Unit 6: y=345 — manifest / config -->
<rect x="394" y="345" width="112" height="14" rx="2" fill="#0e1118" stroke="#1e2128" stroke-width="0.6"/>
<text x="404" y="355" font-family="'JetBrains Mono',monospace" font-size="6.5" fill="#333641" letter-spacing="0.06em">MANIFEST · CONFIG</text>
<circle cx="498" cy="352" r="1.6" fill="#f59e0b" opacity="0.75">
  <animate attributeName="opacity" values="0.75;0.2;0.75" dur="3.0s" repeatCount="indefinite"/>
</circle>

<!-- ── Center core pulsing orb (the "brain") ────────────────── -->
<!-- Outer soft ring -->
<circle cx="450" cy="270" r="14" fill="none" stroke="#4f46e5" stroke-width="0.8" opacity="0.4">
  <animate attributeName="r"       values="14;18;14" dur="2.5s" repeatCount="indefinite"/>
  <animate attributeName="opacity" values="0.4;0;0.4"  dur="2.5s" repeatCount="indefinite"/>
</circle>
<!-- Inner orb -->
<circle cx="450" cy="270" r="9" fill="#4f46e5" opacity="0.9">
  <animate attributeName="r"       values="9;10.5;9"   dur="2.5s" repeatCount="indefinite"/>
  <animate attributeName="opacity" values="0.9;0.7;0.9" dur="2.5s" repeatCount="indefinite"/>
</circle>
<!-- Orb highlight -->
<circle cx="447" cy="267" r="2.5" fill="#c3c0ff" opacity="0.35"/>

<!-- ════════════════════════════════════════════════════════════ -->
<!-- LABELS (file tree paths, below each node card)              -->

<text x="148" y="155" text-anchor="middle" font-family="'JetBrains Mono',monospace" font-size="8" fill="#3a3d48" letter-spacing="0.05em">.tekmemo/memory/</text>
<text x="752" y="155" text-anchor="middle" font-family="'JetBrains Mono',monospace" font-size="8" fill="#3a3d48" letter-spacing="0.05em">.tekmemo/events/</text>
<text x="95"  y="315" text-anchor="middle" font-family="'JetBrains Mono',monospace" font-size="8" fill="#3a3d48" letter-spacing="0.05em">.tekmemo/indexes/</text>
<text x="805" y="315" text-anchor="middle" font-family="'JetBrains Mono',monospace" font-size="8" fill="#3a3d48" letter-spacing="0.05em">.tekmemo/graph/</text>
<text x="148" y="482" text-anchor="middle" font-family="'JetBrains Mono',monospace" font-size="8" fill="#3a3d48" letter-spacing="0.05em">.tekmemo/snapshots/</text>
<text x="752" y="482" text-anchor="middle" font-family="'JetBrains Mono',monospace" font-size="8" fill="#3a3d48" letter-spacing="0.05em">.tekmemo/manifest.json</text>

<!-- DC label below rack -->
<text x="450" y="378" text-anchor="middle" font-family="'JetBrains Mono',monospace" font-size="7.5" fill="#464555" letter-spacing="0.1em">AGENT MEMORY CLOUD</text>

<!-- ════════════════════════════════════════════════════════════ -->
<!-- OUTER VIGNETTE (drawn last, blends everything together)     -->
<rect width="900" height="540" fill="url(#vig)" pointer-events="none"/>
</svg>